<svg width="139" height="67" viewBox="0 0 139 67" fill="none" xmlns="http://www.w3.org/2000/svg">
<g clip-path="url(#clip0_1_15)">
<path d="M49.0873 50.6345C46.9273 50.6345 44.9873 50.2345 43.2673 49.4345C41.5473 48.6345 40.0873 47.5545 38.8873 46.1945C37.6873 44.7945 36.7673 43.1745 36.1273 41.3345C35.4873 39.4945 35.1673 37.5345 35.1673 35.4545C35.1673 33.3745 35.4873 31.4145 36.1273 29.5745C36.7673 27.7345 37.6873 26.1345 38.8873 24.7745C40.0873 23.3745 41.5473 22.2745 43.2673 21.4745C44.9873 20.6745 46.9273 20.2745 49.0873 20.2745C51.2473 20.2745 53.1873 20.6745 54.9073 21.4745C56.6273 22.2745 58.0873 23.3745 59.2873 24.7745C60.4873 26.1345 61.4073 27.7345 62.0473 29.5745C62.6873 31.4145 63.0073 33.3745 63.0073 35.4545C63.0073 37.5345 62.6873 39.4945 62.0473 41.3345C61.4073 43.1745 60.4873 44.7945 59.2873 46.1945C58.0873 47.5545 56.6273 48.6345 54.9073 49.4345C53.1873 50.2345 51.2473 50.6345 49.0873 50.6345ZM48.3073 50.3345C49.4673 50.3345 50.4873 50.0345 51.3673 49.4345C52.2473 48.8345 53.0073 48.0545 53.6473 47.0945C54.2873 46.0945 54.8273 44.9745 55.2673 43.7345C55.7473 42.4945 56.1273 41.2545 56.4073 40.0145C56.6873 38.7345 56.8873 37.5145 57.0073 36.3545C57.1273 35.1945 57.1873 34.1945 57.1873 33.3545C57.1873 32.1945 57.0873 30.8745 56.8873 29.3945C56.6873 27.9145 56.3073 26.5145 55.7473 25.1945C55.2273 23.8745 54.4673 22.7745 53.4673 21.8945C52.5073 20.9745 51.2673 20.5145 49.7473 20.5145C48.0273 20.5145 46.5873 21.1345 45.4273 22.3745C44.3073 23.6145 43.4073 25.1145 42.7273 26.8745C42.0873 28.5945 41.6273 30.3945 41.3473 32.2745C41.0673 34.1545 40.9273 35.7345 40.9273 37.0145C40.9273 38.1345 41.0273 39.4745 41.2273 41.0345C41.4273 42.5545 41.7873 44.0145 42.3073 45.4145C42.8673 46.7745 43.6273 47.9345 44.5873 48.8945C45.5473 49.8545 46.7873 50.3345 48.3073 50.3345ZM74.9389 28.3745V45.1145C74.9389 46.1145 74.9989 46.9545 75.1189 47.6345C75.2789 48.2745 75.5389 48.7945 75.8989 49.1945C76.2589 49.5545 76.7589 49.8145 77.3989 49.9745C78.0389 50.1345 78.8789 50.2145 79.9189 50.2145V50.4545H64.2589V50.2145C65.2989 50.2145 66.1389 50.1345 66.7789 49.9745C67.4189 49.8145 67.9189 49.5545 68.2789 49.1945C68.6389 48.7945 68.8789 48.2745 68.9989 47.6345C69.1589 46.9545 69.2389 46.1145 69.2389 45.1145V26.0345C69.2389 24.9145 69.1989 24.0145 69.1189 23.3345C69.0389 22.6145 68.8389 22.0745 68.5189 21.7145C68.1989 21.3145 67.6989 21.0545 67.0189 20.9345C66.3389 20.7745 65.4189 20.6945 64.2589 20.6945V20.4545H71.3989C72.3589 20.4545 73.0789 20.6345 73.5589 20.9945C74.0389 21.3145 74.3789 21.7545 74.5789 22.3145C74.8189 22.8345 74.9389 23.4545 74.9389 24.1745C74.9389 24.8545 74.9389 25.5545 74.9389 26.2745C75.2589 24.5545 75.9989 23.0745 77.1589 21.8345C78.3589 20.5945 79.8789 19.9745 81.7189 19.9745C82.5989 19.9745 83.4389 20.1145 84.2389 20.3945C85.0389 20.6345 85.7389 21.0145 86.3389 21.5345C86.9789 22.0545 87.4789 22.6745 87.8389 23.3945C88.1989 24.1145 88.3789 24.9545 88.3789 25.9145C88.3789 26.8745 88.1789 27.7545 87.7789 28.5545C87.4189 29.3545 86.9189 30.0345 86.2789 30.5945C85.6389 31.1145 84.8989 31.5345 84.0589 31.8545C83.2189 32.1345 82.3389 32.2745 81.4189 32.2745C81.2189 32.2745 80.9989 32.2745 80.7589 32.2745C80.5589 32.2745 80.3589 32.2545 80.1589 32.2145V31.9745C80.7189 31.8945 81.1989 31.6545 81.5989 31.2545C81.9989 30.8145 82.3189 30.3145 82.5589 29.7545C82.7989 29.1945 82.9789 28.6145 83.0989 28.0145C83.2189 27.4145 83.2789 26.8745 83.2789 26.3945C83.2789 25.1145 82.9589 23.9945 82.3189 23.0345C81.7189 22.0345 80.7189 21.5345 79.3189 21.5345C78.5189 21.5345 77.8389 21.7745 77.2789 22.2545C76.7189 22.7345 76.2589 23.3145 75.8989 23.9945C75.5789 24.6745 75.3389 25.4145 75.1789 26.2145C75.0189 27.0145 74.9389 27.7345 74.9389 28.3745ZM90.1573 20.4545C91.2773 20.4545 92.3973 20.2745 93.5173 19.9145C94.6773 19.5145 95.7173 18.9745 96.6373 18.2945C97.5973 17.5745 98.3773 16.7145 98.9773 15.7145C99.6173 14.7145 99.9573 13.5945 99.9973 12.3545H100.237V20.4545H106.297V20.6945H100.237V44.9345C100.237 46.1745 100.337 47.1545 100.537 47.8745C100.737 48.5545 101.077 49.0745 101.557 49.4345C102.037 49.7945 102.657 50.0145 103.417 50.0945C104.217 50.1745 105.177 50.2145 106.297 50.2145V50.4545C105.657 50.4545 105.017 50.4545 104.377 50.4545C103.737 50.4945 103.097 50.5145 102.457 50.5145C101.777 50.5145 100.977 50.4945 100.057 50.4545C99.1773 50.3745 98.3173 50.2145 97.4773 49.9745C96.6773 49.7345 95.9773 49.3545 95.3773 48.8345C94.8173 48.3145 94.5373 47.5945 94.5373 46.6745V20.6945H90.1573V20.4545ZM129.911 43.3745H130.091C129.891 44.5345 129.471 45.5745 128.831 46.4945C128.231 47.3745 127.471 48.1145 126.551 48.7145C125.671 49.3145 124.691 49.7745 123.611 50.0945C122.571 50.3745 121.491 50.5145 120.371 50.5145C118.251 50.5145 116.391 50.1145 114.791 49.3145C113.191 48.4745 111.851 47.3745 110.771 46.0145C109.691 44.6145 108.871 43.0345 108.311 41.2745C107.751 39.4745 107.471 37.5945 107.471 35.6345C107.471 33.7145 107.731 31.8345 108.251 29.9945C108.811 28.1545 109.611 26.5145 110.651 25.0745C111.731 23.6345 113.071 22.4745 114.671 21.5945C116.271 20.7145 118.131 20.2745 120.251 20.2745C121.531 20.2745 122.751 20.4745 123.911 20.8745C125.071 21.2345 126.091 21.7745 126.971 22.4945C127.851 23.2145 128.551 24.1145 129.071 25.1945C129.591 26.2345 129.851 27.4545 129.851 28.8545C129.851 30.6945 129.451 32.3145 128.651 33.7145C127.891 35.0745 126.871 36.2145 125.591 37.1345C124.311 38.0545 122.871 38.7545 121.271 39.2345C119.671 39.6745 118.051 39.8945 116.411 39.8945C115.611 39.8945 114.811 39.8345 114.011 39.7145C114.331 40.9145 114.751 42.0545 115.271 43.1345C115.791 44.2145 116.431 45.1745 117.191 46.0145C117.991 46.8145 118.911 47.4545 119.951 47.9345C120.991 48.4145 122.171 48.6545 123.491 48.6545C125.131 48.6545 126.531 48.1745 127.691 47.2145C128.851 46.2545 129.591 44.9745 129.911 43.3745ZM113.951 39.4745C114.151 39.5145 114.331 39.5345 114.491 39.5345C114.691 39.5345 114.891 39.5345 115.091 39.5345C116.691 39.5345 118.091 39.1545 119.291 38.3945C120.491 37.6345 121.471 36.6745 122.231 35.5145C123.031 34.3145 123.611 32.9945 123.971 31.5545C124.371 30.1145 124.571 28.6945 124.571 27.2945C124.571 26.6945 124.511 26.0145 124.391 25.2545C124.311 24.4545 124.111 23.7145 123.791 23.0345C123.511 22.3145 123.131 21.7145 122.651 21.2345C122.171 20.7545 121.531 20.5145 120.731 20.5145C119.291 20.5145 118.091 21.0145 117.131 22.0145C116.211 23.0145 115.451 24.2145 114.851 25.6145C114.291 27.0145 113.891 28.4945 113.651 30.0545C113.451 31.5745 113.351 32.8745 113.351 33.9545C113.351 35.9145 113.551 37.7545 113.951 39.4745Z" fill="white"/>
<path d="M19.3711 35.8828L18.668 38.8711C17.3594 44.3984 16.2754 48.2852 15.416 50.5312C13.7559 54.8086 11.627 57.5137 9.0293 58.6465C7.95508 59.1152 6.87109 59.3496 5.77734 59.3496C4.66406 59.3496 3.88281 59.1348 3.43359 58.7051C2.98438 58.2949 2.75977 57.7871 2.75977 57.1816C2.75977 56.5957 2.95508 56.0879 3.3457 55.6582C3.73633 55.2285 4.23438 55.0137 4.83984 55.0137C5.42578 55.0137 5.91406 55.1504 6.30469 55.4238C6.69531 55.6973 6.89062 56.0684 6.89062 56.5371C6.89062 57.0254 6.75391 57.4844 6.48047 57.9141C8.49219 57.6016 10.2988 53.793 11.9004 46.4883C12.1543 45.3359 12.4375 43.9688 12.75 42.3867C13.082 40.7852 13.3359 39.6133 13.5117 38.8711L14.2148 35.8828H8.70703L9.17578 33.9492H14.625C16.9492 24.5156 19.6738 17.9336 22.7988 14.2031C25.377 11.1367 28.4922 9.60352 32.1445 9.60352C33.7852 9.60352 35.1621 9.93555 36.2754 10.5996C37.4082 11.2637 37.9746 12.3672 37.9746 13.9102C37.9746 14.8086 37.6621 15.5215 37.0371 16.0488C36.4316 16.5566 35.709 16.8105 34.8691 16.8105C34.0488 16.8105 33.3457 16.5762 32.7598 16.1074C32.1934 15.6191 31.9102 14.9941 31.9102 14.2324C31.9102 13.4707 32.1738 12.7285 32.7012 12.0059C31.7441 11.6738 30.9922 11.5078 30.4453 11.5078C29.8984 11.5078 29.2441 11.7812 28.4824 12.3281C27.7402 12.8555 27.0762 13.5684 26.4902 14.4668C24.2051 17.9824 21.9785 24.4766 19.8105 33.9492H26.8125L26.3438 35.8828H19.3711Z" fill="white"/>
</g>
<defs>
<clipPath id="clip0_1_15">
<rect width="139" height="67" fill="white"/>
</clipPath>
</defs>
</svg>
